<mxfile host="app.diagrams.net" modified="2020-10-14T14:26:08.398Z" agent="5.0 (Windows NT 10.0; Win64; x64) AppleWebKit/537.36 (KHTML, like Gecko) Chrome/86.0.4240.75 Safari/537.36" etag="ztG_R2C_LZNpVt9IsDrm" version="13.8.0" type="github">
  <diagram id="9hlTAJQ9Yu535D9XNTFt" name="Page-1">
    <mxGraphModel dx="1038" dy="617" grid="1" gridSize="10" guides="1" tooltips="1" connect="1" arrows="1" fold="1" page="1" pageScale="1" pageWidth="850" pageHeight="1100" math="0" shadow="0">
      <root>
        <mxCell id="0" />
        <mxCell id="1" parent="0" />
        <mxCell id="_z6-d1_2xgKwtJisGoFU-12" value="" style="whiteSpace=wrap;html=1;aspect=fixed;fillColor=#dae8fc;strokeColor=#6c8ebf;" vertex="1" parent="1">
          <mxGeometry x="200" y="260" width="437.5" height="437.5" as="geometry" />
        </mxCell>
        <mxCell id="_z6-d1_2xgKwtJisGoFU-1" value="&lt;font style=&quot;font-size: 15px&quot;&gt;Commuter&lt;/font&gt;" style="shape=umlActor;verticalLabelPosition=bottom;verticalAlign=top;html=1;" vertex="1" parent="1">
          <mxGeometry x="100" y="440" width="60" height="100" as="geometry" />
        </mxCell>
        <mxCell id="_z6-d1_2xgKwtJisGoFU-2" value="&lt;font style=&quot;font-size: 15px&quot;&gt;Purchase&lt;/font&gt;" style="ellipse;whiteSpace=wrap;html=1;" vertex="1" parent="1">
          <mxGeometry x="348.75" y="360" width="140" height="70" as="geometry" />
        </mxCell>
        <mxCell id="_z6-d1_2xgKwtJisGoFU-3" value="&lt;font style=&quot;font-size: 15px&quot;&gt;Return&lt;/font&gt;" style="ellipse;whiteSpace=wrap;html=1;" vertex="1" parent="1">
          <mxGeometry x="348.75" y="515" width="140" height="70" as="geometry" />
        </mxCell>
        <mxCell id="_z6-d1_2xgKwtJisGoFU-4" value="&lt;font style=&quot;font-size: 15px&quot;&gt;Bank&lt;/font&gt;" style="shape=umlActor;verticalLabelPosition=bottom;verticalAlign=top;html=1;" vertex="1" parent="1">
          <mxGeometry x="680" y="415" width="60" height="100" as="geometry" />
        </mxCell>
        <mxCell id="_z6-d1_2xgKwtJisGoFU-6" value="" style="endArrow=none;html=1;entryX=0;entryY=0.5;entryDx=0;entryDy=0;" edge="1" parent="1" target="_z6-d1_2xgKwtJisGoFU-2">
          <mxGeometry width="50" height="50" relative="1" as="geometry">
            <mxPoint x="170" y="480" as="sourcePoint" />
            <mxPoint x="240" y="410" as="targetPoint" />
          </mxGeometry>
        </mxCell>
        <mxCell id="_z6-d1_2xgKwtJisGoFU-7" value="" style="endArrow=none;html=1;entryX=0;entryY=0.5;entryDx=0;entryDy=0;" edge="1" parent="1" target="_z6-d1_2xgKwtJisGoFU-3">
          <mxGeometry width="50" height="50" relative="1" as="geometry">
            <mxPoint x="170" y="480" as="sourcePoint" />
            <mxPoint x="270" y="540" as="targetPoint" />
          </mxGeometry>
        </mxCell>
        <mxCell id="_z6-d1_2xgKwtJisGoFU-10" value="" style="endArrow=none;html=1;exitX=1;exitY=0.5;exitDx=0;exitDy=0;" edge="1" parent="1" source="_z6-d1_2xgKwtJisGoFU-2">
          <mxGeometry width="50" height="50" relative="1" as="geometry">
            <mxPoint x="570" y="460" as="sourcePoint" />
            <mxPoint x="670" y="460" as="targetPoint" />
          </mxGeometry>
        </mxCell>
        <mxCell id="_z6-d1_2xgKwtJisGoFU-11" value="" style="endArrow=none;html=1;exitX=1;exitY=0.5;exitDx=0;exitDy=0;" edge="1" parent="1" source="_z6-d1_2xgKwtJisGoFU-3">
          <mxGeometry width="50" height="50" relative="1" as="geometry">
            <mxPoint x="570" y="530" as="sourcePoint" />
            <mxPoint x="670" y="460" as="targetPoint" />
          </mxGeometry>
        </mxCell>
        <mxCell id="_z6-d1_2xgKwtJisGoFU-13" value="&lt;font style=&quot;font-size: 16px&quot;&gt;Ticket Vending Machine&lt;/font&gt;" style="text;html=1;strokeColor=none;fillColor=none;align=center;verticalAlign=middle;whiteSpace=wrap;rounded=0;" vertex="1" parent="1">
          <mxGeometry x="330" y="290" width="200" height="50" as="geometry" />
        </mxCell>
      </root>
    </mxGraphModel>
  </diagram>
</mxfile>
